name C:\Users\u0101727\Documents\MyRepositories\predictivesimulations\OpenSimModel\subject1\EMG\EMG_gait_15.mot
datacolumns 25
datarows 7
range 0.00100000 0.00700000
endheader
time	HamL_r	TA_r	PerL_r	GL_r	HamM_r	Sol_r	VL_r	VM_r	PerB_l	TA_l	PerL_l	GL_l	GM_l	Sol_l	VL_l	VM_l	AddL_l	RF_l	TFL_l	GluMed_l	HamL_l	HamM_l	GluMed_r	RF_r	
          0.00100000	          0.00100000	          0.00100000	          0.00195601	          0.00114321	          0.00100000	          0.00132831	          0.00525926	          0.00100000	          0.00513522	          0.02089883	          0.00100000	          0.00100000	          0.00100000	          0.00131370	          0.00100000	          0.00153159	          0.00100000	          0.00189722	          0.00100000	          0.00127664	          0.00100000	          0.00100000	          0.04105328	          0.00122393	
          0.00200000	          0.00101938	          0.00100000	          0.00248744	          0.00121499	          0.00100000	          0.00196493	          0.00565218	          0.00100000	          0.00552700	          0.02262363	          0.00100000	          0.00100000	          0.00100000	          0.00179679	          0.00100000	          0.00163562	          0.00100000	          0.00206626	          0.00100000	          0.00148360	          0.00100000	          0.00100000	          0.04412812	          0.00155228	
          0.00300000	          0.00118196	          0.00100000	          0.00302010	          0.00128778	          0.00100000	          0.00261446	          0.00605881	          0.00100000	          0.00592748	          0.02437738	          0.00151944	          0.00100000	          0.00100000	          0.00228428	          0.00100000	          0.00174075	          0.00100000	          0.00223750	          0.00100000	          0.00169056	          0.00100000	          0.00100000	          0.04720677	          0.00188214	
          0.00400000	          0.00134475	          0.00100000	          0.00355183	          0.00136121	          0.00100000	          0.00327579	          0.00647838	          0.00100000	          0.00633590	          0.02615637	          0.00263923	          0.00100000	          0.00145447	          0.00277473	          0.00100000	          0.00184658	          0.00100000	          0.00241060	          0.00100000	          0.00189653	          0.00100000	          0.00100000	          0.05027492	          0.00221265	
          0.00500000	          0.00150725	          0.00100000	          0.00408065	          0.00143497	          0.00100000	          0.00394803	          0.00691023	          0.00100000	          0.00675149	          0.02795670	          0.00374657	          0.00100000	          0.00196567	          0.00326678	          0.00100000	          0.00195267	          0.00100000	          0.00258522	          0.00100000	          0.00210066	          0.00108829	          0.00100000	          0.05331880	          0.00254304	
          0.00600000	          0.00166904	          0.00100000	          0.00460490	          0.00150882	          0.00100000	          0.00463051	          0.00735381	          0.00100000	          0.00717342	          0.02977448	          0.00483865	          0.00108460	          0.00246520	          0.00375927	          0.00100000	          0.00205864	          0.00102604	          0.00276104	          0.00100000	          0.00230228	          0.00129571	          0.00100000	          0.05632597	          0.00287254	
          0.00700000	          0.00182971	          0.00100000	          0.00512336	          0.00158254	          0.00100000	          0.00532276	          0.00780864	          0.00100000	          0.00760080	          0.03160591	          0.00591280	          0.00167888	          0.00295154	          0.00425124	          0.00100000	          0.00216411	          0.00133585	          0.00293766	          0.00100000	          0.00250080	          0.00149956	          0.00100000	          0.05928540	          0.00320038	
